<svg width="30" height="48" viewBox="0 0 30 48" fill="none" xmlns="http://www.w3.org/2000/svg">
<path d="M14.8966 3C18.1874 3 20.8552 5.68629 20.8552 9V21H8.93793V9C8.93793 5.68629 11.6057 3 14.8966 3ZM23.8345 21V9C23.8345 4.02944 19.8328 0 14.8966 0C9.96027 0 5.95862 4.02944 5.95862 9V21C2.66777 21 0 23.6863 0 27V42C0 45.3137 2.66777 48 5.95862 48H23.8345C27.1253 48 29.7931 45.3137 29.7931 42V27C29.7931 23.6863 27.1253 21 23.8345 21ZM5.95862 24H23.8345C25.4799 24 26.8138 25.3431 26.8138 27V42C26.8138 43.6569 25.4799 45 23.8345 45H5.95862C4.31319 45 2.97931 43.6569 2.97931 42V27C2.97931 25.3431 4.31319 24 5.95862 24Z" fill="#EA550F"/>
</svg>
