<svg width="48" height="48" viewBox="0 0 48 48" fill="none" xmlns="http://www.w3.org/2000/svg">
<path d="M24 24C30.6274 24 36 18.6274 36 12C36 5.37258 30.6274 0 24 0C17.3726 0 12 5.37258 12 12C12 18.6274 17.3726 24 24 24ZM32 12C32 16.4183 28.4183 20 24 20C19.5817 20 16 16.4183 16 12C16 7.58172 19.5817 4 24 4C28.4183 4 32 7.58172 32 12Z" fill="#EA550F"/>
<path d="M48 44C48 48 44 48 44 48H4C4 48 0 48 0 44C0 40 4 28 24 28C44 28 48 40 48 44ZM43.9999 43.9861C43.9942 42.9989 43.3849 40.0418 40.6715 37.3284C38.0625 34.7194 33.1564 32 24 32C14.8435 32 9.93741 34.7194 7.32839 37.3284C4.61502 40.0418 4.0057 42.9989 4 43.9861H43.9999Z" fill="#EA550F"/>
</svg>
